# AST/ASF file generated using VICON BodyLanguage
# -----------------------------------------------
:version 1.10
:name VICON
:units
  mass 1.0
  length 0.45
  angle deg
:documentation
   .ast/.asf automatically generated from VICON data using
   VICON BodyBuilder and BodyLanguage model FoxedUp or BRILLIANT.MOD
:root
   order TX TY TZ RX RY RZ
   axis XYZ
   position 0 0 0  
   orientation 0 0 0 
:bonedata
  begin
     id 1 
     name lhipjoint
     direction 0.643272 -0.706573 0.294883 
     length 2.58915 
     axis 0 0 0  XYZ
  end
  begin
     id 2 
     name lfemur
     direction 0.34202 -0.939693 0  
     length 7.06802  
     axis 0 0 20  XYZ
    dof rx ry rz
    limits (-160.0 20.0)
           (-70.0 70.0)
           (-60.0 70.0)
  end
  begin
     id 3 
     name ltibia
     direction 0.34202 -0.939693 0   
     length 7.94147   
     axis 0 0 20   XYZ
    dof rx
    limits (-10.0 170.0)
  end
  begin
     id 4 
     name lfoot
     direction 0.0435058 -0.119531 0.991877   
     length 1.8399   
     axis -90 7.62852e-016 20   XYZ
    dof rx rz
    limits (-45.0 90.0)
           (-70.0 20.0)
  end
  begin
     id 5 
     name ltoes
     direction 1.53505e-011 -4.22157e-011 1   
     length 0.934412   
     axis -90 7.62852e-016 20   XYZ
    dof rx
    limits (-90.0 20.0)
  end
  begin
     id 6 
     name rhipjoint
     direction -0.636801 -0.711547 0.296959   
     length 2.57105  
     axis 0 0 0  XYZ 
  end
  begin
     id 7 
     name rfemur
     direction -0.34202 -0.939693 0   
     length 7.03285   
     axis 0 0 -20   XYZ
    dof rx ry rz
    limits (-160.0 20.0)
           (-70.0 70.0)
           (-70.0 60.0)
  end
  begin
     id 8 
     name rtibia
     direction -0.34202 -0.939693 0   
     length 7.99111   
     axis 0 0 -20   XYZ
    dof rx
    limits (-10.0 170.0)
 end
 begin
     id 9 
     name rfoot
     direction -0.0783088 -0.215152 0.973436   
     length 1.98785  
     axis -90 -7.62852e-016 -20   XYZ
    dof rx rz
    limits (-45.0 90.0)
           (-20.0 70.0)
  end
  begin
     id 10 
     name rtoes
     direction -1.53606e-011 -4.21943e-011 1   
     length 1.001   
     axis -90 -7.62852e-016 -20   XYZ
    dof rx
    limits (-90.0 20.0)
  end
  begin
     id 11 
     name lowerback
     direction 0.00141527 0.998403 -0.0564763   
     length 2.30486   
     axis 0 0 0   XYZ
    dof rx ry rz
    limits (-20.0 45.0)
           (-30.0 30.0)
           (-30.0 30.0)
  end
  begin
     id 12 
     name upperback
     direction 0.0125137 0.999915 0.00361315   
     length 2.30697   
     axis 0 0 0   XYZ
    dof rx ry rz
    limits (-20.0 45.0)
           (-30.0 30.0)
           (-30.0 30.0)
  end
  begin
     id 13 
     name thorax
     direction 0.0136417 0.999471 0.0295116   
     length 2.31005   
     axis 0 0 0   XYZ
    dof rx ry rz
    limits (-20.0 45.0)
           (-30.0 30.0)
           (-30.0 30.0)
  end
  begin
     id 14 
     name lowerneck
     direction 0.0766806 0.997047 0.00422047   
     length 1.68825   
     axis 0 0 0   XYZ
    dof rx ry rz
    limits (-20.0 45.0)
           (-30.0 30.0)
           (-30.0 30.0)
  end
  begin
     id 15 
     name upperneck
     direction -0.143512 0.985106 -0.0947088   
     length 1.69772   
     axis 0 0 0   XYZ
    dof rx ry rz
    limits (-20.0 45.0)
           (-30.0 30.0)
           (-30.0 30.0)
  end
  begin
     id 16
     name head
     direction -0.0539128 0.997849 -0.0372864  
     length 1.71187  
     axis 0 0 0   XYZ
    dof rx ry rz
    limits (-20.0 45.0)
           (-30.0 30.0)
           (-30.0 30.0)
  end
  begin
     id 17 
     name lclavicle
     direction 0.978251 0.207416 -0.00165765  
     length 3.35399  
     axis 0 0 0   XYZ
    dof ry rz
    limits (-20.0 10.0)
           (0.0 20.0)
  end
  begin
     id 18 
     name lhumerus
     direction 1 -4.48966e-011 -1.32191e-028   
     length 5.70706   
     axis 180 -30 -90   XYZ
    dof rx ry rz
    limits (-60.0 90.0)
           (-90.0 90.0)
           (-90.0 90.0)
  end
  begin
     id 19
     name lradius
     direction 1 -4.48976e-011 9.36106e-027   
     length 3.33243   
     axis 180 -30 -90   XYZ
    dof rx
    limits (-10.0 170.0)
  end
  begin
     id 20
     name lwrist
     direction 1 -4.48976e-011 1.1555e-026   
     length 1.66621   
     axis -5.7412e-015 90 90   XYZ
    dof ry
    limits (-180.0 0.0)
 end
  begin
     id 21 
     name lhand
     direction 1 -4.48939e-011 2.31113e-026   
     length 0.792687   
     axis -1.47463e-014 90 90   XYZ
    dof rx rz
    limits (-90.0 90.0)
           (-45.0 45.0)
  end
  begin
     id 22 
     name lfingers
     direction 1 -4.48866e-011 4.62274e-026   
     length 0.639085   
     axis -2.94925e-014 90 90   XYZ
    dof rx
    limits (0.0 90.0)
  end
  begin
     id 23
     name lthumb
     direction 0.707107 -6.34847e-011 0.707107   
     length 0.917601   
     axis -90 45 -6.68868e-015   XYZ
    dof rx rz
    limits (-45.0 45.0)
           (-45.0 45.0)
  end
  begin
     id 24 
     name rclavicle
     direction -0.981813 0.185514 0.0403428   
     length 3.47271  
     axis 0 0 0   XYZ 
    dof ry rz
    limits (-10.0 20.0)
           (-20.0 0.0)
  end
  begin
     id 25 
     name rhumerus
     direction -1 -4.48972e-011 -6.58544e-029  
     length 5.88176   
     axis 180 30 90   XYZ
    dof rx ry rz
    limits (-90.0 60.0)
           (-90.0 90.0)
           (-90.0 90.0)
  end
  begin
     id 26 
     name rradius
     direction -1 -4.48964e-011 8.36306e-027   
     length 3.28156   
     axis 180 30 90   XYZ
    dof rx
    limits (-10.0 170.0)
  end
  begin
     id 27 
     name rwrist
     direction -1 -4.48903e-011 1.15562e-026   
     length 1.64078   
     axis -5.7412e-015 -90 -90   XYZ
    dof ry
    limits (-180.0 0.0)
  end
  begin
     id 28
     name rhand
     direction -1 -4.49055e-011 2.31074e-026   
     length 0.863125   
     axis -1.47463e-014 -90 -90   XYZ
    dof rx rz
    limits (-90.0 90.0)
           (-45.0 45.0)
  end
  begin
     id 29
     name rfingers
     direction -1 -4.48994e-011 4.62188e-026   
     length 0.695873   
     axis -2.94925e-014 -90 -90   XYZ
    dof rx
    limits (0.0 90.0)
  end
  begin
     id 30
     name rthumb
     direction -0.707107 -6.35058e-011 0.707107   
     length 0.999139   
     axis -90 -45 6.68868e-015   XYZ
    dof rx rz
    limits (-45.0 45.0)
           (-45.0 45.0)
  end
:hierarchy
  begin
    root lhipjoint rhipjoint lowerback
    lhipjoint lfemur
    lfemur ltibia
    ltibia lfoot
    lfoot ltoes
    rhipjoint rfemur
    rfemur rtibia
    rtibia rfoot
    rfoot rtoes
    lowerback upperback
    upperback thorax
    thorax lowerneck lclavicle rclavicle
    lowerneck upperneck
    upperneck head
    lclavicle lhumerus
    lhumerus lradius
    lradius lwrist
    lwrist lhand lthumb
    lhand lfingers
    rclavicle rhumerus
    rhumerus rradius
    rradius rwrist
    rwrist rhand rthumb
    rhand rfingers
  end

#!OML:ASF \\Waltz\H\Terrain\Patient Classification 1\Animal2\Wednesday\Animal2.ASF
:FULLY-SPECIFIED
:DEGREES
1227
root -0.610399 17.5603 -0.181892 1.16139 2.87248 -4.49842
lowerback 5.4789 -3.49381 1.93449
upperback -3.39918 -4.43136 1.39573
thorax -6.65477 -2.23515 0.871939
lowerneck 10.2768 6.2562 16.0504
upperneck -16.2988 8.03744 -20.7438
head -4.85301 4.63486 -9.9824
rclavicle -4.20554e-014 1.92821e-014
rhumerus 22.7778 40.5543 -48.2473
rradius 90.8727
rwrist -23.9358
rhand -12.0087 21.7914
rfingers 7.12502
rthumb 14.0486 -7.71377
lclavicle -4.20554e-014 1.92821e-014
lhumerus 30.0375 14.6465 21.1197
lradius 72.6975
lwrist -3.82172
lhand -51.8108 21.1425
lfingers 7.12502
lthumb -24.3261 49.6188
rfemur -9.44688 -8.54107 28.7448
rtibia 39.9671
rfoot -18.2329 4.47915
rtoes 25.9717
lfemur -22.2049 -4.30506 -16.7345
ltibia 40.6424
lfoot -18.4845 -7.6822
ltoes -11.6346
1228
root -0.605354 17.5643 -0.125879 0.85912 2.83244 -4.23429
lowerback 5.54914 -3.50431 1.78021
upperback -3.22387 -4.46435 1.30182
thorax -6.5045 -2.24643 0.859759
lowerneck 10.1378 6.27788 16.1445
upperneck -16.2271 8.0346 -21.025
head -4.78545 4.64412 -10.0842
rclavicle -1.69837e-014 -5.36719e-015
rhumerus 23.1535 40.6957 -47.6955
rradius 90.6954
rwrist -23.9106
rhand -11.4042 21.6994
rfingers 7.12502
rthumb 14.6311 -7.76442
lclavicle -1.69837e-014 -5.36719e-015
lhumerus 29.9486 14.565 21.2497
lradius 72.8253
lwrist -3.82304
lhand -51.6365 21.0449
lfingers 7.12502
lthumb -24.1591 49.5435
rfemur -9.68294 -8.67345 28.3199
rtibia 41.3723
rfoot -17.5713 4.04891
rtoes 23.7644
lfemur -21.3594 -3.77967 -17.3577
ltibia 40.3423
lfoot -17.8856 -6.68704
ltoes -9.64672
1229
root -0.597803 17.5642 -0.0709746 0.546661 2.83091 -4.34426
lowerback 5.55576 -3.57799 2.03772
upperback -2.98854 -4.54298 1.32739
thorax -6.27849 -2.29494 0.742069
lowerneck 9.81735 6.37492 16.1274
upperneck -16.09 8.11051 -21.2338
head -4.6597 4.6849 -10.125
rclavicle -3.55949e-015 7.55382e-015
rhumerus 23.8865 40.8614 -46.8635
rradius 90.5384
rwrist -23.8267
rhand -11.2274 21.6486
rfingers 7.12502
rthumb 14.8014 -7.80282
lclavicle -3.55949e-015 7.55382e-015
lhumerus 29.8848 14.668 21.4586
lradius 72.9902
lwrist -3.69969
lhand -51.539 21.0682
lfingers 7.12502
lthumb -24.0656 49.5792
rfemur -10.0509 -8.75635 28.2874
rtibia 42.9159
rfoot -16.4593 4.15584
rtoes 24.907
lfemur -20.5249 -3.28077 -17.4732
ltibia 40.0897
lfoot -17.5046 -7.4005
ltoes -3.51395
1230
root -0.58953 17.562 -0.0278662 0.342822 2.93819 -4.44619
lowerback 5.67852 -3.69672 2.3179
upperback -2.90791 -4.6727 1.38011
thorax -6.28389 -2.36841 0.66186
lowerneck 9.72036 6.48439 15.9868
upperneck -15.8841 8.23458 -21.3458
head -4.55648 4.75812 -10.1191
rclavicle -3.32902e-014 -1.12313e-014
rhumerus 24.5353 41.1603 -46.0482
rradius 90.4043
rwrist -23.5239
rhand -11.7556 21.9294
rfingers 7.12502
rthumb 14.2925 -7.55874
lclavicle -3.32902e-014 -1.12313e-014
lhumerus 29.72 14.6014 21.5578
lradius 72.9834
lwrist -3.48459
lhand -51.4414 20.6399
lfingers 7.12502
lthumb -23.972 49.1633
rfemur -10.6837 -8.94308 28.2573
rtibia 44.5794
rfoot -15.1604 4.51677
rtoes 27.6112
lfemur -19.948 -2.87464 -17.4924
ltibia 39.7886
lfoot -17.5895 -8.52844
ltoes 0.2663
1231
root -0.576044 17.5644 0.0161225 0.175712 3.08218 -4.38282
lowerback 5.8464 -3.83392 2.47433
upperback -2.9743 -4.83676 1.36478
thorax -6.46755 -2.45581 0.594912
lowerneck 10.0755 6.51249 16.1222
upperneck -15.6872 8.33537 -21.5868
head -4.5204 4.8335 -10.2361
rclavicle -8.82728e-015 7.95139e-016
rhumerus 24.8122 41.5493 -45.5311
rradius 90.2894
rwrist -23.4168
rhand -12.0683 21.9859
rfingers 7.12502
rthumb 13.9912 -7.52327
lclavicle -8.82728e-015 7.95139e-016
lhumerus 29.3108 14.2793 21.414
lradius 72.9761
lwrist -3.13532
lhand -51.3764 19.5296
lfingers 7.12502
lthumb -23.9096 48.0612
rfemur -11.4257 -9.24221 27.9975
rtibia 46.3587
rfoot -14.4136 4.02875
rtoes 22.1179
lfemur -19.4107 -2.70354 -17.6537
ltibia 39.4375
lfoot -18.0157 -8.33005
ltoes -1.28423
1232
root -0.562494 17.5663 0.0649998 -0.00766271 3.11731 -4.29603
lowerback 5.90812 -3.95079 2.56188
upperback -2.99295 -4.98561 1.31938
thorax -6.53704 -2.53369 0.523197
lowerneck 10.8283 6.54546 16.2741
upperneck -16.0067 8.45227 -21.752
head -4.70744 4.92841 -10.3891
rclavicle 4.50372e-015 1.74931e-014
rhumerus 25.1728 41.8645 -45.0353
rradius 90.1609
rwrist -23.3934
rhand -11.6252 21.4935
rfingers 7.12502
rthumb 14.4181 -7.98565
lclavicle 4.50372e-015 1.74931e-014
lhumerus 28.8455 13.9675 21.1042
lradius 73.1062
lwrist -2.94079
lhand -51.4141 19.2412
lfingers 7.12502
lthumb -23.9457 47.768
rfemur -12.2851 -9.38511 27.6784
rtibia 48.2555
rfoot -13.7372 3.47415
rtoes 12.3414
lfemur -18.8097 -2.67146 -17.7971
ltibia 39.0936
lfoot -18.2 -7.59266
ltoes -4.0638
1233
root -0.555242 17.561 0.108674 -0.117171 3.0093 -4.34545
lowerback 6.00316 -4.0167 2.69948
upperback -3.04884 -5.05549 1.34765
thorax -6.66222 -2.57332 0.495904
lowerneck 11.3715 6.62605 16.2432
upperneck -16.2635 8.60066 -21.7754
head -4.85022 5.0286 -10.4438
rclavicle -1.01312e-013 -6.06293e-015
rhumerus 25.5816 42.1414 -44.4934
rradius 90.0159
rwrist -23.1438
rhand -11.0352 21.6355
rfingers 7.12502
rthumb 14.9866 -7.80221
lclavicle -1.01312e-013 -6.06293e-015
lhumerus 28.4659 13.617 20.8898
lradius 73.1583
lwrist -2.94267
lhand -51.5858 19.4327
lfingers 7.12502
lthumb -24.1104 47.9377
rfemur -13.3443 -9.20121 27.5537
rtibia 50.2246
rfoot -12.6708 3.75112
rtoes 10.9371
lfemur -18.3864 -2.26517 -17.7299
ltibia 38.8307
lfoot -18.2656 -7.53073
ltoes -6.33107
1234
root -0.555347 17.5533 0.145376 -0.196257 2.95484 -4.40383
lowerback 6.21912 -4.08586 2.78543
upperback -3.12466 -5.12718 1.40247
thorax -6.87132 -2.61084 0.536009
lowerneck 11.4166 6.71758 16.3031
upperneck -16.0826 8.75648 -21.8513
head -4.76458 5.10986 -10.47
rclavicle -2.99513e-014 -5.66536e-015
rhumerus 25.8339 42.3581 -44.0327
rradius 89.9353
rwrist -22.8384
rhand -10.8437 22.4228
rfingers 7.12502
rthumb 15.1711 -7.00107
lclavicle -2.99513e-014 -5.66536e-015
lhumerus 28.2279 13.3055 20.8047
lradius 73.1154
lwrist -2.92554
lhand -51.5889 19.2795
lfingers 7.12502
lthumb -24.1133 47.7841
rfemur -14.4266 -8.88665 27.4722
rtibia 52.2093
rfoot -11.6042 4.15423
rtoes 14.4745
lfemur -18.1398 -1.53904 -17.6101
ltibia 38.6737
lfoot -18.3926 -8.08816
ltoes -7.95588
1235
root -0.56051 17.5442 0.182459 -0.300466 3.08474 -4.16496
lowerback 6.32297 -4.2292 2.53471
upperback -3.04931 -5.34246 1.35454
thorax -6.8353 -2.70598 0.655257
lowerneck 11.2839 6.87238 16.3461
upperneck -15.9264 8.98327 -21.8338
head -4.64624 5.21223 -10.4486
rclavicle 3.68714e-014 4.67144e-015
rhumerus 26.2106 42.3964 -43.6238
rradius 89.8541
rwrist -22.5695
rhand -10.7913 22.8054
rfingers 7.12502
rthumb 15.2215 -6.61462
lclavicle 3.68714e-014 4.67144e-015
lhumerus 28.1071 13.2621 20.6388
lradius 73.0558
lwrist -3.05309
lhand -51.6962 18.8601
lfingers 7.12502
lthumb -24.2162 47.3511
rfemur -15.4066 -8.82138 27.0351
rtibia 54.1352
rfoot -10.6333 4.5046
rtoes 16.0623
lfemur -17.8863 -0.98669 -17.8243
ltibia 38.5502
lfoot -18.4922 -8.72295
ltoes -7.96283
